<?xml version="1.0" encoding="UTF-8"?>
<svg width="14px" height="14px" viewBox="0 0 14 14" version="1.1" xmlns="http://www.w3.org/2000/svg" xmlns:xlink="http://www.w3.org/1999/xlink">
    <g id="页面-1" stroke="none" stroke-width="1" fill="none">
        <rect id="矩形" x="0" y="0" width="14" height="14"></rect>
        <path fill="#FFFFFF" d="M3.59266522,13 C3.41000282,13 3.23867115,12.931697 3.1093363,12.8079851 L2.11000207,11.8498709 L1.16666359,12.8079851 C1.04533336,12.9313791 0.873325498,13 0.68399258,13 C0.500653986,13 0.329322315,12.931697 0.200663653,12.8079851 C0.0713288011,12.691038 0,12.5260829 0,12.3443832 C0,12.1697663 0.0706708875,12.0051467 0.200663653,11.8807813 L4.69730218,7.57186413 L4.63600657,7.5148125 C3.85266903,6.64238179 3.4440133,5.52867391 3.48666803,4.37949864 C3.53533536,3.23163043 4.03200532,2.14978668 4.88466136,1.33278261 C5.78867122,0.473263587 6.98333269,0 8.24866505,0 C9.52733844,0 10.7219999,0.473263587 11.6119926,1.33248234 C12.5086557,2.19136549 13.0013234,3.33472962 13,4.55155435 C12.9986552,5.77191168 12.5013273,6.91817255 11.5986515,7.77965217 C10.7146532,8.62694837 9.48331305,9.11277038 8.2206489,9.11277038 C7.36930868,9.11277038 6.52997539,8.89177038 5.79331317,8.47359783 L5.69857361,8.4092337 L4.55345668,9.5606875 L4.61932115,9.63402446 L5.23132701,10.2136019 C5.35998567,10.3305489 5.43133275,10.4955041 5.43133275,10.6775217 C5.43133275,10.8527745 5.36066186,11.0174117 5.23132701,11.1411236 C5.11133088,11.2629103 4.9346628,11.3331386 4.74732189,11.3331386 C4.5653174,11.3331386 4.39398573,11.2648356 4.26465088,11.1411236 L3.67998498,10.5808872 L3.56464907,10.4513818 L3.07530754,10.9790829 L4.07663379,11.8808166 C4.20529245,11.9983995 4.27663953,12.1633546 4.27663953,12.3444185 C4.27663953,12.5200068 4.20596864,12.6846264 4.07663379,12.8080204 C3.95332981,12.931697 3.78134023,13 3.59266522,13 Z M8.18599878,1.30316168 C7.28399922,1.3653356 6.4726638,1.67235462 5.85932383,2.25998641 C5.22133038,2.87436005 4.87066242,3.69136413 4.87199273,4.56024457 C4.87333063,5.42591033 5.22399858,6.23743886 5.85932383,6.84631929 C6.49799347,7.45811413 7.3486575,7.79508967 8.25599348,7.79508967 C9.15799305,7.79508967 10.0066651,7.45811413 10.6459926,6.84631929 C11.2846623,6.22712364 11.6366643,5.4113913 11.6366643,4.54961141 C11.6366643,3.68523505 11.2846623,2.87209918 10.6459926,2.25998641 C10.0159855,1.6636644 9.18666712,1.3266712 8.31065514,1.3118519 L8.18599878,1.30316168 Z" id="形状"></path>
    </g>
</svg>