<?xml version="1.0" encoding="UTF-8"?>
<svg width="14px" height="14px" viewBox="0 0 14 14" version="1.1" xmlns="http://www.w3.org/2000/svg" xmlns:xlink="http://www.w3.org/1999/xlink">
    <title>财务</title>
    <g id="页面-1" stroke="none" stroke-width="1" fill="none" fill-rule="evenodd">
        <g id="财务">
            <rect id="矩形" x="0" y="0" width="14" height="14"></rect>
            <g id="菜单财务" fill="#FFFFFF" fill-rule="nonzero">
                <path d="M1.07651718,8.23242254 C1.11594999,8.24271981 1.15384621,8.25801737 1.18924772,8.27792844 C1.42256023,8.40532745 1.66085424,8.6118475 1.91342358,8.83025831 C2.02472658,8.92685805 2.13531582,9.02205715 2.24519129,9.11236863 C2.24590506,9.11306895 2.2751695,9.13756539 2.3165531,9.20268012 C3.56869331,11.1802536 5.60782086,11.5974664 7.03263316,11.738186 C7.29019887,11.7633828 7.54919211,11.7843923 7.83457985,11.8074881 L8.23414054,11.8403883 C8.59361309,11.8703953 8.93933371,11.6978055 9.1262364,11.3950384 C9.31313909,11.0922712 9.30888948,10.7117058 9.11527074,10.4130291 L8.95474757,10.1687212 C8.87626297,10.0503971 8.8099124,9.95171104 8.75139839,9.85229545 C8.66648989,9.70528761 8.67220002,9.65559441 8.69646809,9.61499072 C8.71501116,9.61709166 8.74356183,9.62199387 8.7813766,9.6324986 C9.08889111,9.72419613 9.39068062,9.85090941 9.65395646,9.99860298 C10.8283407,10.6601383 11.9370882,11.1172544 13.0472483,11.3937768 C13.0436794,11.7584806 13.045107,12.1224986 13.0458207,12.487217 C13.0465345,12.6748285 13.0472483,12.86244 13.0465345,13.0570401 L11.5703607,13.0626426 C10.8480897,13.0664936 10.12581,13.0685946 9.40352842,13.0689455 C8.0928742,13.0689455 7.02906432,13.0577404 6.05588795,13.0346446 C5.58142636,13.0220389 4.99280671,12.7833336 4.51977265,12.5901195 C2.93442232,11.9446915 1.81712455,10.9331445 1.10364032,9.49668121 C0.93739214,9.16276215 0.906715039,8.8022457 1.00873908,8.39412241 C1.02075311,8.33651599 1.04374889,8.2816544 1.07651718,8.23242254 M1.05583281,7.29858134 C0.597059225,7.29858134 0.226049209,7.61989473 0.0869241712,8.17082397 C-0.061479835,8.76305723 -0.0279476673,9.34827274 0.250317279,9.90620514 C1.08438348,11.5834747 2.41857713,12.7434302 4.15588544,13.4504568 C4.75378406,13.694079 5.40020396,13.9495773 6.03161988,13.9649842 C7.15464266,13.9922819 8.27836434,14 9.40352842,14 C10.7256029,14 12.0462499,13.9894953 13.3683244,13.9873943 C13.8014023,13.986694 13.9911899,13.7990825 13.9954577,13.3755668 C13.9998731,12.6461302 13.98832,11.9166935 13.9998731,11.1865565 C14.0054504,10.8134489 13.8270979,10.6174336 13.4689209,10.5355259 C12.2816888,10.265321 11.1822203,9.78509437 10.1269905,9.19077476 C9.78890871,9.00217715 9.43042491,8.85119964 9.05819914,8.74064714 C8.93510091,8.70268847 8.8069405,8.68287331 8.67791016,8.68184984 C8.39394995,8.68184984 8.13138787,8.79105525 7.93660389,9.05565769 C7.63695568,9.46097972 7.68546208,9.89359946 7.92805356,10.3115272 C8.0322189,10.4900346 8.1520871,10.6594379 8.31546534,10.9107344 C7.86525696,10.8729466 7.49638824,10.8463492 7.12823329,10.8099474 C5.50008669,10.6489332 4.04672373,10.1673206 3.12349616,8.70914755 C3.05148014,8.59241183 2.96146413,8.487329 2.85665149,8.39763857 C2.46210204,8.07490997 2.09321845,7.70250275 1.65087637,7.46169643 C1.46942242,7.35966076 1.26491282,7.30359999 1.05583281,7.29858134 L1.05583281,7.29858134 Z" id="形状"></path>
                <path d="M9.69319877,2.93459611 L9.22300491,2.47466407 C9.19660683,2.44850245 9.1606433,2.43378286 9.12312217,2.43378286 C9.08560105,2.43378286 9.04963752,2.44850245 9.02323944,2.47466407 L7.27308333,4.19183704 L5.52291236,2.47466407 C5.49614772,2.44837593 5.45983001,2.43360505 5.42195897,2.43360505 C5.38408794,2.43360505 5.34777022,2.44837593 5.32100559,2.47466407 L4.8515255,2.93459611 C4.82472786,2.96085693 4.80967038,2.99649334 4.80967038,3.03365424 C4.80967038,3.07081514 4.82472786,3.10645155 4.8515255,3.13271237 L6.47182066,4.72248633 L5.042012,4.72248633 C4.96281015,4.72248633 4.89860436,4.7854821 4.89860436,4.86319133 L4.89860436,5.51422188 C4.89879319,5.55135358 4.91400837,5.58689081 4.94090262,5.61301555 C4.96779687,5.63914028 5.00416709,5.65371246 5.042012,5.65352626 L6.79930577,5.65352626 L6.79930577,6.38506388 L5.04202687,6.38506388 C5.00418196,6.38487768 4.96781174,6.39944986 4.94091749,6.42557459 C4.91402324,6.45169933 4.89880806,6.48723656 4.89861923,6.52436826 L4.89861923,7.17679944 C4.89979257,7.25357367 4.96377021,7.31509589 5.04202687,7.31470318 L6.79932065,7.31470318 L6.79932065,8.60205767 C6.79932065,8.67696222 6.86497232,8.74136205 6.94274315,8.74136205 L7.60626371,8.74136205 C7.68475874,8.74099705 7.74852084,8.67906578 7.74968622,8.60205767 L7.74968622,7.31470318 L9.50697999,7.31470318 C9.58468091,7.31433041 9.64779501,7.25302836 9.6489601,7.17679944 L9.6489601,6.52436826 C9.64856965,6.44759182 9.58523114,6.38544697 9.50697999,6.38506388 L7.74968622,6.38506388 L7.74968622,5.65352626 L9.50697999,5.65352626 C9.58523114,5.65314316 9.64856965,5.59099832 9.6489601,5.51422188 L9.6489601,4.86319133 C9.64914987,4.82605964 9.6342978,4.79037484 9.60767126,4.76398744 C9.58104473,4.73760003 9.54482491,4.7226716 9.50697999,4.72248633 L8.07572893,4.72248633 L9.69534007,3.13271237 C9.75016682,3.07728986 9.7492111,2.98886536 9.69319877,2.93459611 L9.69319877,2.93459611 Z" id="路径"></path>
                <path d="M1.17213218,6.34234465 C1.43197175,6.36273446 1.66093185,6.1759921 1.68797737,5.92161568 C1.94426641,3.08675203 4.37174344,0.917431677 7.27236957,0.931110927 C10.3638719,0.931110927 12.8795874,3.39943035 12.8795874,6.43335646 C12.8808197,7.13052915 12.7461717,7.82150274 12.4828967,8.46905614 C12.3859639,8.70798542 12.5047952,8.97877449 12.7483138,9.07388046 C12.9918324,9.16898644 13.2678228,9.05239461 13.3647555,8.81346534 C13.6720357,8.05622654 13.8291943,7.2484052 13.8278061,6.43335646 C13.8278061,2.88630354 10.8861261,0 7.2716558,0 C3.87999268,-0.0154675639 1.04190979,2.52142272 0.742608164,5.83622099 C0.719069629,6.09226121 0.911212367,6.31867777 1.17211731,6.34234465 L1.17213218,6.34234465 Z" id="路径"></path>
            </g>
        </g>
    </g>
</svg>