<?xml version="1.0" encoding="UTF-8"?>
<svg width="14px" height="14px" viewBox="0 0 14 14" version="1.1" xmlns="http://www.w3.org/2000/svg" xmlns:xlink="http://www.w3.org/1999/xlink">
    <title>商品</title>
    <g id="页面-1" stroke="none" stroke-width="1" fill="none" fill-rule="evenodd">
        <g id="商品">
            <rect id="矩形" x="0" y="0" width="14" height="14"></rect>
            <g transform="translate(1.000000, 1.000000)" fill="#FFFFFF" fill-rule="nonzero" id="形状">
                <path d="M11.0444444,2.39827586 L6.82222222,0.201724138 C6.31111111,-0.0672413793 5.68888889,-0.0672413793 5.17777778,0.201724138 L0.955555556,2.42068966 C0.377777778,2.68965517 0,3.31724138 0,3.98965517 L0,8.98793103 C0,9.66034483 0.377777778,10.2655172 0.955555556,10.5793103 L5.2,12.7982759 C5.44444444,12.9327586 5.73333333,13 6.02222222,13 C6.31111111,13 6.57777778,12.9327586 6.84444444,12.7982759 L11.0444444,10.6017241 C11.6444444,10.287931 12,9.68275862 12,9.01034483 L12,3.98965517 C12,3.31724138 11.6222222,2.68965517 11.0444444,2.39827586 Z M5.6,0.986206897 C5.73333333,0.918965517 5.86666667,0.874137931 6,0.874137931 C6.13333333,0.874137931 6.28888889,0.896551724 6.4,0.963793103 L10.6222222,3.16034483 C10.6888889,3.18275862 10.7333333,3.22758621 10.8,3.27241379 L6,5.78275862 L1.2,3.31724138 C1.24444444,3.27241379 1.31111111,3.22758621 1.37777778,3.20517241 L5.6,0.986206897 Z M1.37777778,9.77241379 C1.06666667,9.61551724 0.888888889,9.30172414 0.888888889,8.96551724 L0.888888889,4.14655172 L2.66666667,5.06551724 L2.66666667,7.08275862 C2.66666667,7.26206897 2.75555556,7.41896552 2.91111111,7.4862069 L3.22222222,7.64310345 C3.24444444,7.66551724 3.28888889,7.66551724 3.31111111,7.66551724 C3.44444444,7.66551724 3.53333333,7.57586207 3.53333333,7.44137931 L3.53333333,5.5137931 L5.53333333,6.54482759 L5.53333333,11.9465517 L1.37777778,9.77241379 Z M10.6222222,9.77241379 L6.44444444,11.9689655 L6.44444444,6.54482759 L11.1111111,4.14655172 L11.1111111,8.96551724 C11.1111111,9.30172414 10.9333333,9.61551724 10.6222222,9.77241379 L10.6222222,9.77241379 Z"></path>
            </g>
        </g>
    </g>
</svg>