<?xml version="1.0" encoding="UTF-8"?>
<svg width="14px" height="14px" viewBox="0 0 14 14" version="1.1" xmlns="http://www.w3.org/2000/svg" xmlns:xlink="http://www.w3.org/1999/xlink">
    <title>工作台</title>
    <g id="页面-1" stroke="none" stroke-width="1" fill="none" fill-rule="evenodd">
        <g id="工作台">
            <rect id="矩形" x="0" y="0" width="14" height="14"></rect>
            <path d="M7,1 C3.13359375,1 0,4.2073197 0,8.16469322 C0,10.5086114 1.09921875,12.589451 2.8,13.8964478 L2.80136719,13.8936491 C2.88476562,13.9594187 2.99003906,14 3.10351562,14 C3.37558594,14 3.59570312,13.774704 3.59570312,13.4962325 C3.59570312,13.3115178 3.49863281,13.150592 3.35371094,13.0624327 C2.83691406,12.6594187 2.38574219,12.1710441 2.02070313,11.6196986 L2.625,11.2628633 C2.83417969,11.1397201 2.90527344,10.8654467 2.78496094,10.6513455 C2.66464844,10.4372443 2.39667969,10.3644779 2.1875,10.4876211 L1.58320313,10.8444564 C1.25917969,10.1615716 1.05546875,9.4073197 1.00078125,8.61248654 L1.6953125,8.61248654 C1.93730469,8.61248654 2.1328125,8.4123789 2.1328125,8.16469322 C2.1328125,7.91700753 1.93730469,7.71689989 1.6953125,7.71689989 L1.00078125,7.71689989 C1.05683594,6.91926803 1.26191406,6.16361679 1.5859375,5.47793326 L2.1875,5.83336921 C2.39667969,5.95651238 2.66464844,5.88374596 2.78496094,5.66964478 C2.90527344,5.4555436 2.83417969,5.18127018 2.625,5.05812702 L2.02480469,4.70409042 C2.45136719,4.06318622 2.99277344,3.50904198 3.61894531,3.07244349 L3.96484375,3.68675996 C4.08515625,3.90086114 4.353125,3.97362756 4.56230469,3.85048439 C4.77148438,3.72734123 4.84257813,3.45306781 4.72226562,3.23896663 L4.375,2.62325081 C5.04355469,2.29020452 5.78183594,2.08170075 6.5625,2.02432723 L6.5625,2.73519914 C6.5625,2.98288482 6.75800781,3.18299247 7,3.18299247 C7.24199219,3.18299247 7.4375,2.98288482 7.4375,2.73519914 L7.4375,2.02432723 C8.2140625,2.08170075 8.95097656,2.29020452 9.61816406,2.6204521 L9.26953125,3.23896663 C9.14921875,3.45306781 9.2203125,3.72734123 9.42949219,3.85048439 C9.63867188,3.97362756 9.90664062,3.90086114 10.0269531,3.68675996 L10.3755859,3.06824543 C11.0044922,3.50484392 11.5472656,4.06038751 11.9751953,4.70409042 L11.375,5.05812702 C11.1658203,5.18127018 11.0947266,5.4555436 11.2150391,5.66964478 C11.3353516,5.88374596 11.6033203,5.95651238 11.8125,5.83336921 L12.4140625,5.47793326 C12.7394531,6.16221744 12.9431641,6.91926803 12.9992187,7.71689989 L12.3046875,7.71689989 C12.0626953,7.71689989 11.8671875,7.91700753 11.8671875,8.16469322 C11.8671875,8.4123789 12.0626953,8.61248654 12.3046875,8.61248654 L12.9992187,8.61248654 C12.9431641,9.40871905 12.7394531,10.1615716 12.4167969,10.8444564 L11.8125,10.4876211 C11.6033203,10.3644779 11.3353516,10.4372443 11.2150391,10.6513455 C11.0947266,10.8654467 11.1658203,11.1397201 11.375,11.2628633 L11.9792969,11.6196986 C11.6046875,12.1850377 11.1412109,12.6818084 10.609375,13.0904198 L10.6121094,13.0946179 C10.4931641,13.1869752 10.4179688,13.3325081 10.4179688,13.4962325 C10.4179688,13.774704 10.6380859,14 10.9101562,14 C11.046875,14 11.1712891,13.9426265 11.2615234,13.8488698 C12.9267578,12.5404736 14,10.4806243 14,8.16469322 C14,4.2073197 10.8664062,1 7,1 Z" id="Shape" fill="#FFFFFF" fill-rule="nonzero"></path>
            <path d="M9.1546875,5.88094726 L7.43613281,7.25511302 L7.43613281,7.25511302 C7.30488281,7.18794403 7.15585938,7.15156082 7,7.15156082 C6.45585938,7.15156082 6.015625,7.60215285 6.015625,8.1590958 C6.015625,8.71603875 6.45585938,9.16663079 7,9.16663079 C7.54414062,9.16663079 7.984375,8.71603875 7.984375,8.1590958 C7.984375,8.09332616 7.97890625,8.03035522 7.96660156,7.96878364 L9.69335938,6.58622174 C9.88339844,6.43369214 9.91757812,6.15242196 9.76855469,5.95791173 C9.61953125,5.76340151 9.34472656,5.72841765 9.1546875,5.88094726 Z" id="Shape" fill="#FFFFFF" fill-rule="nonzero"></path>
        </g>
    </g>
</svg>