<?xml version="1.0" encoding="UTF-8"?>
<svg width="46px" height="23px" viewBox="0 0 46 23" version="1.1" xmlns="http://www.w3.org/2000/svg" xmlns:xlink="http://www.w3.org/1999/xlink">
    <title>嗨购</title>
    <g id="页面-1" stroke="none" stroke-width="1" fill="none" fill-rule="evenodd">
        <g id="3.布局/2.亮色/1.侧边菜单布局-" transform="translate(-29.000000, -18.000000)" fill="#FFFFFF" fill-rule="nonzero">
            <g id="嗨购" transform="translate(29.000000, 18.000000)">
                <path d="M6.23331595,20.2410033 C6.23331595,20.4667394 6.15667682,20.742639 6.02894494,21.0436205 C5.90121305,21.344602 5.72238841,21.5954198 5.49247102,21.7709924 L4.90490435,22.2977099 C4.72607972,22.4732824 4.47061595,22.648855 4.13851305,22.7742639 C3.80641015,22.8996728 3.47430725,22.9749182 3.16775073,22.9749182 L1.04740145,22.9749182 C0.766391305,22.9749182 0.510927537,22.8996728 0.306556522,22.7241003 C0.102185507,22.5485278 0,22.3478735 0,22.1221374 L0,0.852780807 C0,0.627044711 0.102185507,0.426390403 0.306556522,0.250817884 C0.510927537,0.0752453653 0.740844928,0 1.04740145,0 L5.1859145,0 C5.46692464,0 5.72238841,0.0752453653 5.92675943,0.250817884 C6.13113044,0.426390403 6.25886233,0.627044711 6.25886233,0.852780807 L6.25886233,20.2410033 L6.23331595,20.2410033 Z M3.67867827,3.16030534 C3.67867827,2.93456925 3.62758551,2.73391494 3.5254,2.55834242 C3.4232145,2.3827699 3.29548261,2.30752454 3.11665798,2.30752454 C2.96337971,2.30752454 2.81010145,2.3827699 2.70791595,2.55834242 C2.60573044,2.73391494 2.55463768,2.93456925 2.55463768,3.16030534 L2.55463768,19.7644493 C2.55463768,20.0152672 2.60573044,20.2159215 2.70791595,20.391494 C2.81010145,20.5670665 2.93783334,20.6423119 3.11665798,20.6423119 C3.26993624,20.6423119 3.4232145,20.5670665 3.5254,20.391494 C3.62758551,20.2159215 3.67867827,20.0152672 3.67867827,19.7644493 L3.67867827,3.16030534 Z M7.38290291,2.00654308 C7.38290291,1.75572519 7.48508842,1.52998909 7.68945943,1.32933479 C7.89383044,1.12868048 8.14929421,1.02835333 8.45585074,1.02835333 L8.89013914,1.02835333 C9.14560291,1.02835333 9.3755203,1.10359869 9.57989132,1.25408942 C9.83535509,1.45474373 9.93754059,1.70556161 9.93754059,1.98146129 L9.93754059,15.6761178 C9.93754059,15.9520174 9.80980871,16.2028353 9.57989132,16.4034896 C9.40106668,16.5539804 9.14560291,16.6292257 8.89013914,16.6292257 L8.45585074,16.6292257 C8.14929421,16.6292257 7.89383044,16.5288986 7.68945943,16.3282443 C7.48508842,16.12759 7.38290291,15.9018539 7.38290291,15.651036 L7.38290291,2.00654308 Z M9.50325219,19.7644493 C9.73316958,19.9400218 9.83535509,20.1406761 9.83535509,20.391494 C9.83535509,20.6423119 9.73316958,20.8429662 9.50325219,21.0185387 L9.32442755,21.1439477 C9.09451016,21.3195202 8.83904639,21.4198473 8.55803624,21.4198473 C8.2770261,21.4198473 8.02156233,21.3195202 7.81719131,21.1439477 L7.6128203,20.9934569 C7.38290291,20.8178844 7.2807174,20.5921483 7.30626378,20.3664122 C7.33181015,20.1406761 7.43399566,19.9400218 7.63836668,19.7644493 L7.81719131,19.6139586 C8.02156233,19.438386 8.25147972,19.3631407 8.55803624,19.3631407 C8.83904639,19.3631407 9.09451016,19.438386 9.32442755,19.6139586 L9.50325219,19.7644493 Z M32.6227232,21.3195202 C32.8526406,21.4950927 32.9548261,21.695747 32.9548261,21.9465649 C32.9548261,22.1973828 32.8526406,22.3980371 32.6227232,22.5736096 L32.4438986,22.6990185 C32.2139812,22.8745911 31.9585174,22.9749182 31.6775073,22.9749182 C31.3964971,22.9749182 31.1410334,22.8745911 30.9366624,22.6990185 L30.7322913,22.5485278 C30.502374,22.3729553 30.4001884,22.1472192 30.4257348,21.9214831 C30.4512812,21.695747 30.5534667,21.4950927 30.7578377,21.3195202 L30.9366624,21.1690294 C31.1410334,20.9934569 31.3709508,20.9182116 31.6775073,20.9182116 C31.9585174,20.9182116 32.2139812,20.9934569 32.4438986,21.1690294 L32.6227232,21.3195202 Z M12.4921783,0 C12.7987348,0 13.0541986,0.0250817884 13.2585696,0.100327154 C13.4629406,0.175572519 13.5906725,0.250817884 13.5906725,0.351145038 C13.5906725,0.426390403 13.692858,0.501635769 13.9227754,0.576881134 C14.1271464,0.652126499 14.3826102,0.677208288 14.6891667,0.677208288 L19.2619681,0.677208288 C19.5685247,0.677208288 19.8239884,0.752453653 20.0283594,0.928026172 C20.2327305,1.10359869 20.3604623,1.304253 20.3604623,1.55507088 L20.3604623,2.13195202 C20.3604623,2.3827699 20.2582768,2.58342421 20.0283594,2.75899673 C19.8239884,2.93456925 19.5685247,3.00981461 19.2619681,3.00981461 L14.1016,3.00981461 C13.7950435,3.00981461 13.4629406,2.93456925 13.1308377,2.80916031 C12.7731884,2.68375136 12.5177247,2.50817884 12.3133536,2.33260632 L11.725787,1.80588877 C11.521416,1.63031625 11.3425913,1.40458015 11.2148594,1.17884406 C11.0871276,0.928026172 11.0104884,0.752453653 11.0104884,0.601962923 C11.0104884,0.426390403 11.1126739,0.300981461 11.3425913,0.200654308 C11.5469623,0.100327154 11.8024261,0.0501635769 12.0834362,0.0501635769 L12.4921783,0.0501635769 L12.4921783,0 Z M11.0360348,4.96619411 C11.0360348,4.89094875 11.1382203,4.81570338 11.3681377,4.74045802 C11.5725087,4.66521265 11.8279725,4.64013086 12.1089826,4.64013086 L19.2619681,4.64013086 C19.594071,4.64013086 19.8750812,4.74045802 20.1049986,4.94111232 C20.2838232,5.09160305 20.3604623,5.31733915 20.3604623,5.54307525 L20.3604623,20.2660851 C20.3604623,20.4918212 20.2838232,20.7677208 20.1560913,21.0687023 C20.0028131,21.3696838 19.8495348,21.6205016 19.6707102,21.7960742 L19.0831435,22.3227917 C18.8787725,22.4983642 18.5977623,22.6739368 18.2401131,22.7993457 C17.8824638,22.9247546 17.5759073,23 17.2693507,23 L12.0323435,23 C11.7513333,23 11.521416,22.9247546 11.3170449,22.7491821 C11.1126739,22.5736096 11.0360348,22.3729553 11.0360348,22.1472192 L11.0360348,4.96619411 Z M17.7802783,7.85059978 C17.7802783,7.5997819 17.6525464,7.3740458 17.3970826,7.17339149 C17.1927116,7.02290076 16.9627942,6.9476554 16.7073305,6.9476554 L14.6636203,6.9476554 C14.3570638,6.9476554 14.1016,7.04798255 13.897229,7.22355507 C13.692858,7.39912759 13.5651261,7.62486369 13.5651261,7.85059978 L13.5651261,11.8386041 C13.5651261,12.0643402 13.6673116,12.2900763 13.897229,12.4656489 C14.1016,12.6412214 14.3570638,12.7415485 14.6636203,12.7415485 L16.7073305,12.7415485 C16.9627942,12.7415485 17.1927116,12.6663032 17.3970826,12.5158124 C17.6525464,12.3151581 17.7802783,12.089422 17.7802783,11.8386041 L17.7802783,7.85059978 Z M16.7328768,20.6423119 C17.013887,20.6423119 17.2693507,20.5670665 17.4737218,20.391494 C17.6780928,20.2159215 17.8058247,20.0152672 17.8058247,19.7644493 L17.8058247,15.9520174 C17.8058247,15.7011996 17.7036392,15.5005453 17.4737218,15.3249727 C17.2438044,15.1494002 17.013887,15.0741549 16.7328768,15.0741549 L14.6891667,15.0741549 C14.3826102,15.0741549 14.1271464,15.1494002 13.9227754,15.3249727 C13.7184044,15.5005453 13.5906725,15.7011996 13.5906725,15.9520174 L13.5906725,19.7644493 C13.5906725,20.0152672 13.692858,20.2159215 13.9227754,20.391494 C14.1271464,20.5670665 14.3826102,20.6423119 14.6891667,20.6423119 L16.7328768,20.6423119 Z M14.6636203,10.3587786 C14.4337029,10.1832061 14.3315174,9.9825518 14.3315174,9.73173391 C14.3315174,9.48091603 14.4337029,9.25517993 14.6636203,9.07960742 L14.8168986,8.95419847 C15.0212696,8.77862595 15.2767334,8.70338059 15.5577435,8.70338059 C15.8643,8.70338059 16.0942174,8.77862595 16.2985884,8.95419847 L16.5029594,9.07960742 C16.7073305,9.25517993 16.809516,9.48091603 16.7839696,9.73173391 C16.7839696,9.9825518 16.6562377,10.1832061 16.4263203,10.3587786 L16.3241348,10.4841876 C16.0942174,10.6597601 15.8387536,10.7600872 15.5321971,10.7600872 C15.2256406,10.7600872 14.9701768,10.6848419 14.7658058,10.5092694 L14.6636203,10.3587786 Z M14.9446305,16.8549618 C15.1490015,16.6793893 15.4044652,16.5790622 15.6854754,16.5790622 C15.9920319,16.5790622 16.2219493,16.6793893 16.4007739,16.8549618 L16.6562377,16.9803708 C16.8350623,17.1559433 16.9372478,17.3816794 16.9372478,17.6074155 C16.9372478,17.8582334 16.8350623,18.0588877 16.6051449,18.2344602 L16.4518667,18.3598691 C16.2474957,18.5354417 15.9920319,18.610687 15.7110218,18.610687 C15.4044652,18.610687 15.1745478,18.5354417 14.9701768,18.3598691 L14.7658058,18.2344602 C14.5614348,18.0588877 14.4592493,17.8331516 14.4592493,17.6074155 C14.4592493,17.3565976 14.5614348,17.1559433 14.7658058,17.0054526 L14.9446305,16.8549618 Z M41.9982435,14.0458015 L41.9982435,15.4002181 C41.9982435,15.5005453 41.9726972,15.5757906 41.9216044,15.651036 C41.7683261,15.9018539 41.3595841,16.4285714 40.5676464,16.4034896 L36.4546798,16.4034896 C36.4546798,16.4034896 35.6882885,16.2279171 35.6627421,15.4754635 L35.6627421,9.12977099 C35.6627421,9.12977099 35.8926595,8.4525627 36.4802261,8.35223555 L41.487316,8.32715376 C41.7683261,8.32715376 41.9982435,8.55288986 41.9982435,8.82878953 L41.9982435,9.50599782 C41.9982435,9.78189749 41.7683261,10.0076336 41.487316,10.0076336 L38.575029,10.0076336 C38.2940189,10.0076336 38.0641015,10.2333697 38.0641015,10.5092694 L38.0641015,14.1962923 C38.0641015,14.4721919 38.2940189,14.697928 38.575029,14.697928 L39.2136885,14.697928 C39.3414203,14.697928 39.4691522,14.5976009 39.4691522,14.4471101 L39.4691522,13.9454744 C39.4691522,13.6695747 39.6990696,13.4438386 39.9800798,13.4438386 L41.3851305,13.4438386 C41.7683261,13.4940022 42.0237899,13.7448201 41.9982435,14.0458015 Z" id="形状"></path>
                <path d="M33.7309398,0 C34.0063677,0 34.2567566,0.0753275109 34.4570678,0.200873362 C34.657379,0.351528384 34.7575346,0.502183406 34.7575346,0.703056769 L34.7575346,14.1866812 C34.7575346,14.3624454 34.657379,14.5382096 34.4570678,14.6637555 C34.2567566,14.7893013 34.0063677,14.8646288 33.7309398,14.8646288 L33.3303174,14.8646288 C33.0298506,14.8646288 32.7794616,14.7893013 32.5541115,14.6637555 C32.3538004,14.5382096 32.2286059,14.3624454 32.2286059,14.1866812 L32.2286059,2.56113537 C32.2286059,2.36026201 32.1284503,2.18449782 31.9281391,2.05895197 C31.7278279,1.93340611 31.4774389,1.8580786 31.1769721,1.8580786 L29.6495993,1.8580786 C29.3741714,1.8580786 28.6230045,1.93340611 28.4226933,2.05895197 C28.2223821,2.18449782 27.8718375,2.36026201 27.8718375,2.56113537 L27.8718375,14.1866812 C27.8718375,14.3624454 27.771682,14.5382096 27.5713708,14.6637555 C27.3710596,14.7893013 27.1206706,14.8646288 26.8452427,14.8646288 L26.4195814,14.8646288 C26.1191147,14.8646288 25.8687257,14.7893013 25.6684145,14.6637555 C25.4681033,14.5382096 25.3679477,14.3624454 25.3679477,14.1866812 L25.3679477,0.703056769 C25.3679477,0.527292576 25.4681033,0.351528384 25.6684145,0.200873362 C25.8687257,0.0502183406 26.1191147,0 26.4195814,0 L33.7309398,0 Z M39.2394974,0.80349345 L44.9734052,0.80349345 C45.248833,0.80349345 45.499222,0.903930131 45.6995332,1.07969432 C45.8998444,1.25545852 46,1.48144105 46,1.70742358 L46,22.121179 C46,22.3471616 45.8998444,22.5480349 45.6995332,22.7237991 C45.499222,22.8995633 45.248833,22.9748908 44.9734052,22.9748908 L37.4366967,22.9748908 C37.1612689,22.9748908 36.9108799,22.8995633 36.7105687,22.7237991 C36.5102575,22.5480349 36.4101019,22.3471616 36.4101019,22.121179 L36.4101019,21.5436681 C36.4101019,21.2925764 36.5102575,21.0917031 36.7105687,20.9159389 C36.9108799,20.7401747 37.13623,20.6648472 37.4366967,20.6648472 L42.1440096,20.6648472 C42.4444764,20.6648472 42.6948654,20.5895197 42.8951766,20.4137555 C43.0954878,20.2379913 43.1956434,20.0371179 43.1956434,19.7860262 L43.1956434,4.01746725 C43.1956434,3.79148472 43.0954878,3.56550218 42.8951766,3.38973799 C42.6948654,3.2139738 42.4444764,3.11353712 42.1440096,3.11353712 L36.4601797,3.11353712 C36.1597129,3.11353712 35.9093239,3.03820961 35.7090127,2.86244541 C35.5087016,2.68668122 35.408546,2.48580786 35.408546,2.25982533 L35.408546,0.85371179 C35.408546,0.627729258 35.5087016,0.426855895 35.7090127,0.251091703 C35.9093239,0.0753275109 36.1597129,0 36.4601797,0 L37.1111911,0 C37.3866189,0 37.6370079,0.0251091703 37.862358,0.100436681 C38.0877081,0.175764192 38.1878637,0.276200873 38.1878637,0.401746725 C38.1878637,0.527292576 38.2880193,0.602620087 38.4883305,0.677947598 C38.7387195,0.753275109 38.9640695,0.80349345 39.2394974,0.80349345 Z M25.7435312,23 L26.8202038,23 C27.0956317,23 27.3209818,22.849345 27.4712152,22.6233624 L30.5509997,17.5010917 C30.5509997,17.5010917 31.3772833,15.7936681 31.3522444,15.1659389 C31.3272055,14.6637555 31.3522444,8.61244541 31.3522444,6.20196507 C31.3522444,5.64956332 30.9015443,5.22270742 30.3506885,5.22270742 L29.6996771,5.22270742 C29.1488214,5.22270742 28.6981212,5.67467249 28.6981212,6.20196507 L28.7231601,15.3165939 L25.0925198,21.8700873 C24.8170919,22.3722707 25.1926754,23 25.7435312,23 Z" id="形状"></path>
            </g>
        </g>
    </g>
</svg>