<svg t="1677576518707" class="icon" viewBox="0 0 1024 1024" version="1.1" xmlns="http://www.w3.org/2000/svg" p-id="3856" width="200" height="200"><path d="M767.99417 383.991974c-35.327473 0-63.999161 28.671688-63.999161 63.999161s28.671688 63.999161 63.999161 63.999161 63.999161-28.671688 63.999161-63.999161S803.321643 383.991974 767.99417 383.991974L767.99417 383.991974zM511.999521 831.983108c-37.375023 0-73.470203-4.351667-108.157754-11.744211l-150.653149 90.558409 2.015604-148.44487C139.718814 692.913441 64.008386 578.099902 64.008386 447.991135c0-212.059679 200.572036-383.991974 447.991135-383.991974s447.990137 171.932294 447.990137 383.991974C959.989657 660.082761 759.41862 831.983108 511.999521 831.983108L511.999521 831.983108zM511.999521 0C229.252949 0 0.010223 200.603982 0.010223 447.991135c0 141.404733 75.03856 267.322561 191.996486 349.400261l0 226.587201 224.283083-136.093682c31.039698 5.120372 62.974887 8.095359 95.709729 8.095359 282.745574 0 511.989298-200.572036 511.989298-447.991135C1023.988819 200.603982 794.746093 0 511.999521 0L511.999521 0 511.999521 0zM256.004872 383.991974c-35.327473 0-63.998163 28.671688-63.998163 63.999161s28.671688 63.999161 63.998163 63.999161 63.999161-28.671688 63.999161-63.999161S291.332345 383.991974 256.004872 383.991974L256.004872 383.991974zM511.999521 383.991974c-35.327473 0-63.999161 28.671688-63.999161 63.999161s28.671688 63.999161 63.999161 63.999161 63.999161-28.671688 63.999161-63.999161S547.326994 383.991974 511.999521 383.991974L511.999521 383.991974z" p-id="3857"></path></svg>