<?xml version="1.0" encoding="UTF-8"?>
<svg width="14px" height="14px" viewBox="0 0 14 14" version="1.1" xmlns="http://www.w3.org/2000/svg" xmlns:xlink="http://www.w3.org/1999/xlink">
    <title>订单</title>
    <g id="页面-1" stroke="none" stroke-width="1" fill="none" fill-rule="evenodd">
        <g id="订单">
            <rect id="矩形" x="0" y="0" width="14" height="14"></rect>
            <g id="Group-5-Copy-2" fill="#FFFFFF" fill-rule="nonzero">
                <g id="详情" transform="translate(1.000000, 1.000000)">
                    <path d="M11.0357143,0 L0.964285714,0 C0.43125,0 0,0.43125 0,0.964285714 L0,11.0357143 C0,11.56875 0.43125,12 0.964285714,12 L11.0357143,12 C11.56875,12 12,11.56875 12,11.0357143 L12,0.964285714 C12,0.43125 11.56875,0 11.0357143,0 Z M11.0357143,11.0357143 L0.964285714,11.0357143 L0.964285714,0.964285714 L11.0357143,0.964285714 L11.0357143,11.0357143 Z" id="Shape"></path>
                    <path d="M4.76785714,9.05357143 L8.94642857,9.05357143 C9.21294643,9.05357143 9.42857143,8.83794643 9.42857143,8.57142857 C9.42857143,8.30491071 9.21294643,8.08928571 8.94642857,8.08928571 L4.76785714,8.08928571 C4.50133929,8.08928571 4.28571429,8.30491071 4.28571429,8.57142857 C4.28571429,8.83794643 4.50133929,9.05357143 4.76785714,9.05357143 Z" id="Shape"></path>
                    <path d="M4.76785714,3.91071429 L8.94642857,3.91071429 C9.21294643,3.91071429 9.42857143,3.69508929 9.42857143,3.42857143 C9.42857143,3.16205357 9.21294643,2.94642857 8.94642857,2.94642857 L4.76785714,2.94642857 C4.50133929,2.94642857 4.28571429,3.16205357 4.28571429,3.42857143 C4.28571429,3.69508929 4.50133929,3.91071429 4.76785714,3.91071429 Z" id="Shape"></path>
                    <path d="M4.76785714,6.48214286 L8.94642857,6.48214286 C9.21294643,6.48214286 9.42857143,6.26651786 9.42857143,6 C9.42857143,5.73348214 9.21294643,5.51785714 8.94642857,5.51785714 L4.76785714,5.51785714 C4.50133929,5.51785714 4.28571429,5.73348214 4.28571429,6 C4.28571429,6.26651786 4.50133929,6.48214286 4.76785714,6.48214286 Z" id="Shape"></path>
                    <circle id="Oval" cx="3.07142857" cy="8.58928571" r="1"></circle>
                    <circle id="Oval" cx="3.07142857" cy="3.44642857" r="1"></circle>
                    <circle id="Oval" cx="3.07142857" cy="6.01785714" r="1"></circle>
                </g>
            </g>
        </g>
    </g>
</svg>