<?xml version="1.0" standalone="no"?><!DOCTYPE svg PUBLIC "-//W3C//DTD SVG 1.1//EN" "http://www.w3.org/Graphics/SVG/1.1/DTD/svg11.dtd"><svg t="1677569714996" class="icon" viewBox="0 0 1024 1024" version="1.1" xmlns="http://www.w3.org/2000/svg" p-id="2796" xmlns:xlink="http://www.w3.org/1999/xlink" width="200" height="200"><path d="M905.6 628.8c-6.4-20.8-19.2-38.4-38.4-49.6l-54.4-32c1.6-12.8 1.6-24 1.6-35.2 0-11.2 0-22.4-1.6-35.2l54.4-32c40-22.4 52.8-73.6 30.4-112l-36.8-64c-11.2-19.2-28.8-32-49.6-38.4-20.8-6.4-43.2-3.2-62.4 8l-54.4 30.4c-19.2-14.4-40-25.6-60.8-35.2v-62.4c0-44.8-36.8-83.2-83.2-83.2h-73.6c-44.8 0-83.2 36.8-83.2 83.2v62.4c-22.4 9.6-43.2 20.8-60.8 35.2l-54.4-30.4c-40-22.4-89.6-9.6-112 30.4l-36.8 64c-11.2 19.2-14.4 41.6-8 62.4 6.4 20.8 19.2 38.4 38.4 49.6l54.4 32c-1.6 12.8-1.6 24-1.6 35.2 0 11.2 0 22.4 1.6 35.2l-54.4 32c-19.2 11.2-32 28.8-38.4 49.6-8 20.8-4.8 43.2 6.4 62.4l36.8 64c11.2 19.2 28.8 32 49.6 38.4 20.8 6.4 43.2 3.2 62.4-8l54.4-30.4c19.2 14.4 40 25.6 60.8 35.2v62.4c0 44.8 36.8 83.2 83.2 83.2h73.6c44.8 0 83.2-36.8 83.2-83.2v-62.4c22.4-9.6 43.2-20.8 60.8-35.2l54.4 30.4c19.2 11.2 41.6 14.4 62.4 8 20.8-6.4 38.4-19.2 49.6-38.4l36.8-64c11.2-19.2 14.4-41.6 9.6-62.4z m-49.6 38.4l-36.8 64c-4.8 8-12.8 12.8-20.8 16-9.6 1.6-17.6 1.6-25.6-3.2l-57.6-33.6c-14.4-8-32-6.4-46.4 3.2-17.6 12.8-36.8 24-57.6 33.6-16 6.4-25.6 22.4-25.6 38.4v67.2c0 19.2-16 35.2-35.2 35.2h-73.6c-19.2 0-35.2-16-35.2-35.2v-67.2c0-17.6-9.6-32-25.6-38.4-20.8-8-40-19.2-57.6-33.6-8-6.4-16-8-25.6-8-6.4 0-14.4 1.6-20.8 4.8l-57.6 33.6c-8 4.8-17.6 6.4-25.6 3.2s-16-8-20.8-16l-36.8-64c-4.8-8-6.4-17.6-3.2-25.6 1.6-9.6 8-16 16-20.8l57.6-33.6c14.4-8 22.4-24 20.8-41.6-1.6-11.2-1.6-22.4-1.6-33.6s0-20.8 1.6-33.6c1.6-16-4.8-33.6-20.8-41.6l-57.6-33.6c-8-4.8-14.4-12.8-16-20.8s-1.6-17.6 3.2-25.6l36.8-64c9.6-16 30.4-22.4 46.4-12.8l57.6 33.6c14.4 8 32 6.4 46.4-3.2 17.6-12.8 36.8-24 57.6-33.6 16-6.4 25.6-22.4 25.6-38.4v-67.2c0-19.2 16-35.2 35.2-35.2h73.6c19.2 0 35.2 16 35.2 35.2v67.2c0 17.6 9.6 32 25.6 38.4 20.8 8 40 19.2 57.6 33.6 12.8 9.6 32 11.2 46.4 3.2l57.6-33.6c16-9.6 36.8-3.2 46.4 12.8l36.8 64c9.6 16 3.2 36.8-12.8 46.4L784 436.8c-14.4 8-22.4 24-20.8 41.6 1.6 11.2 1.6 22.4 1.6 33.6 0 11.2 0 20.8-1.6 33.6-1.6 17.6 4.8 33.6 20.8 41.6l57.6 33.6c8 4.8 12.8 12.8 16 20.8 3.2 8 1.6 17.6-1.6 25.6z" p-id="2797"></path><path d="M512 360c-83.2 0-152 68.8-152 152s68.8 152 152 152 152-68.8 152-152c0-84.8-67.2-152-152-152z m0 256c-57.6 0-104-46.4-104-104s46.4-104 104-104 104 46.4 104 104-46.4 104-104 104z" p-id="2798"></path></svg>