<?xml version="1.0" encoding="UTF-8"?>
<svg width="14px" height="14px" viewBox="0 0 14 14" version="1.1" xmlns="http://www.w3.org/2000/svg" xmlns:xlink="http://www.w3.org/1999/xlink">
    <title>店铺</title>
    <g id="页面-1" stroke="none" stroke-width="1" fill="none" fill-rule="evenodd">
        <g id="店铺">
            <rect id="矩形" x="0" y="0" width="14" height="14"></rect>
            <g id="3.1店铺" transform="translate(0.000000, 1.000000)" fill="#FFFFFF" fill-rule="nonzero">
                <path d="M13.9999664,5.03653682 C14.0014547,4.73552843 13.9534898,4.43348553 13.8656463,4.15846063 C13.8646418,4.15065007 13.863135,4.14339124 13.8616115,4.13713245 C13.8555511,4.10699368 13.8474816,4.07787218 13.8358629,4.04980243 L12.6526291,1.01635589 C12.4476776,0.387303889 11.859091,0.00155175796 11.1705566,0 L2.8652017,0 C2.1675766,0 1.62543132,0.382114092 1.42906836,0.986199883 L0.156986571,4.08152746 C0.150926087,4.09971762 0.144363355,4.12675286 0.138821871,4.15430534 C0.046441367,4.44646866 0,4.74644253 0,5.0474509 C0.00077011511,5.84550762 0.321624084,6.59113182 0.867753884,7.12302595 L0.871269629,11.6706699 C0.871269629,12.4036903 1.45128454,13 2.16454637,13 L11.6637493,12.9937584 C12.3760066,12.9921894 12.9555193,12.3943452 12.9555193,11.6607903 L12.954565,7.27496123 C13.6091807,6.73737731 14.0003497,5.91694067 13.9999664,5.03653682 Z M11.6622258,11.9539881 L2.16454635,11.9602297 C2.00806203,11.9602297 1.88085886,11.8302605 1.88085886,11.6701354 L1.87782863,7.74571574 C2.15210729,7.83490788 2.4531224,7.88023673 2.77839617,7.88023673 C3.60675691,7.87765045 4.37404409,7.50281241 4.89700341,6.86127731 C5.41745149,7.49760538 6.17867816,7.86983988 7.00553216,7.87502968 C7.82582343,7.86827087 8.58502437,7.49446736 9.10294446,6.85867379 C9.6259038,7.5002089 10.3942122,7.87347792 11.2266077,7.87347792 C11.4811647,7.87216754 11.7212401,7.84354604 11.9450929,7.78821692 L11.94593,11.6612903 C11.94593,11.8224672 11.8182079,11.9534709 11.6622258,11.9539881 Z M12.0711241,6.63671933 C11.8424498,6.76565396 11.5572388,6.83167303 11.2255864,6.83374206 C10.6107489,6.83374206 10.0504389,6.51245724 9.72332352,5.96711448 C9.70010283,5.91563029 9.66122869,5.83038653 9.5885364,5.74824631 C9.50524663,5.65207122 9.35381828,5.53822322 9.1044512,5.53822322 C8.90355125,5.53822322 8.72131825,5.62294972 8.61834027,5.75293609 C8.55018495,5.83195553 8.5128343,5.91045771 8.48608113,5.96763173 C8.16301725,6.50623294 7.60722752,6.83062129 7.00501316,6.83531107 C6.39521483,6.83167303 5.83793509,6.5083192 5.51284548,5.9655627 C5.49012703,5.91773379 5.4522574,5.83714532 5.39320955,5.76903999 C5.15594671,5.47739394 4.62491789,5.49246331 4.41795745,5.74669453 C4.34173266,5.83247278 4.30185402,5.9187683 4.27610535,5.97752854 C3.95001123,6.51611252 3.38918227,6.83896633 2.77737493,6.84103535 C2.45128081,6.84103535 2.17213032,6.77811981 1.94698844,6.65439222 L1.9464862,6.65439222 C1.9464862,6.65439222 1.9464862,6.65439222 1.94598395,6.65439222 C1.36849702,6.3377972 1.00958925,5.7222628 1.00908701,5.04850266 C1.00908701,4.84939367 1.04139842,4.64871566 1.1060045,4.45324471 C1.11054149,4.43920984 1.11457624,4.42360595 1.11812547,4.4074848 L2.37102131,1.35686535 C2.39676999,1.27888042 2.47450154,1.04130484 2.86419722,1.04130484 L11.1720801,1.04130484 C11.3320969,1.05118442 11.6077317,1.08028868 11.7056537,1.37714178 L12.8787922,4.3856566 C12.883346,4.4074848 12.8888875,4.42827848 12.8939434,4.44543414 C12.9590685,4.64142236 12.9913653,4.84053136 12.9913653,5.03810581 C12.9923677,5.70405542 12.6395204,6.31646903 12.0711241,6.63671933 Z" id="形状"></path>
            </g>
        </g>
    </g>
</svg>