<?xml version="1.0" encoding="UTF-8"?>
<svg width="14px" height="14px" viewBox="0 0 14 14" version="1.1" xmlns="http://www.w3.org/2000/svg" xmlns:xlink="http://www.w3.org/1999/xlink">
    <title>系统</title>
    <g id="页面-1" stroke="none" stroke-width="1" fill="none" fill-rule="evenodd">
        <g id="系统" transform="translate(0.000000, -0.000000)">
            <rect id="矩形" x="0" y="1.13686838e-13" width="14" height="14"></rect>
            <g id="工作台" fill="#FFFFFF" fill-rule="nonzero">
                <path d="M12.4218945,0 L1.57460635,0 C0.705773609,0.00197974895 0.00192432984,0.726099308 0,1.61995372 L0,9.60812548 C0,10.5033854 0.70440957,11.229694 1.57460635,11.2316791 L6.47338166,11.2316791 L6.47338166,12.9200309 L2.79230193,12.9200309 C2.50242491,12.9200309 2.26743315,13.1617902 2.26743315,13.4600154 C2.26743315,13.7582407 2.50242491,14 2.79230193,14 L11.1902024,14 C11.4800795,14 11.7150712,13.7582407 11.7150712,13.4600154 C11.7150712,13.1617902 11.4800795,12.9200309 11.1902024,12.9200309 L7.52311923,12.9200309 L7.52311923,11.2316791 L12.4218945,11.2316791 C13.2934581,11.2316791 14,10.5047894 14,9.60812548 L14,1.62355361 C14,0.726889712 13.2934581,0 12.4218945,0 L12.4218945,0 Z M12.9502624,9.60812548 C12.9483541,9.90752189 12.7129099,10.1497466 12.4218945,10.1517099 L1.57460635,10.1517099 C1.28359095,10.1497466 1.0481468,9.90752189 1.04623845,9.60812548 L1.04623845,1.61995372 C1.04623845,1.32172847 1.28123021,1.07996915 1.57110723,1.07996915 L12.4183954,1.07996915 C12.7094108,1.08193246 12.944855,1.3241572 12.9467633,1.62355361 L12.9502624,9.60812548 Z" id="形状"></path>
                <path d="M10.1684579,4.11108255 L8.10397401,6.23142196 L6.03249188,4.10388275 C5.9345395,4.00187173 5.80096346,3.94445734 5.66158461,3.94445734 C5.52220575,3.94445734 5.38862971,4.00187173 5.29067734,4.10388275 L2.79580105,6.67420931 C2.64588432,6.82863541 2.601069,7.06072457 2.68222856,7.26237744 C2.76338812,7.46403031 2.9545622,7.59559101 3.16670833,7.59578298 C3.31168459,7.59928243 3.45183895,7.54212576 3.55511122,7.43738751 L5.65458636,5.24865004 L7.72606848,7.37978914 C7.93177497,7.58838788 8.26217654,7.58838788 8.46788303,7.37978914 L10.9172707,4.85986114 C11.1099737,4.6471002 11.1042877,4.31554969 10.9044092,4.10991486 C10.7045307,3.90428003 10.3822613,3.89843022 10.1754561,4.09668294 L10.1684579,4.11108255 Z" id="路径"></path>
            </g>
        </g>
    </g>
</svg>